<svg xmlns="http://www.w3.org/2000/svg" viewBox="0 0 3024 3024"><circle cx="1512" cy="1512" r="1512" fill="#02c763" stroke="null" stroke-opacity="null" stroke-width="null"/><path fill="#fff" fill-rule="evenodd" d="M1965 474 710 514c-34-1-49 10-42 30 1 1 0 3-1 5v41a47247 47247 0 0 1 22 527 23385 23385 0 0 0 13 316 3499 3499 0 0 1 4 275 5568 5568 0 0 0 5 304c2 186 2 190 5 195 7 13 24 15 33 3 4-5 5-12 3-85-1-55-1-55 3-65a2076 2076 0 0 0 43-113c6 20 17 44 23 51 3 4 3 4 3 21-1 24 1 29 13 29 11 0 13-4 14-39 1-27 1-27 4-34 5-9 10-22 15-37 4-15-22-13 200-16a213094 213094 0 0 0 827-11 144056 144056 0 0 0 8 566l-205 6c-69 1-73 2-76 4-5 2-7 6-8 11l-2 7c-3 3-4 8-5 28-6 70-13 293-10 302 6 16 29 16 34-1l2-53c0-50 0-50 14-50 379-9 371-9 387-8 18 2 39 2 51 0l22-2c28 0 51-6 44-12l-1-2a211958 211958 0 0 1-13-1242c3-3 180-2 180 1a2568 2568 0 0 0 24 231c4 24 4 24 5 60a3739 3739 0 0 0 7 211c1 70 2 90 4 94 7 13 26 13 32 0a7705 7705 0 0 0-1-380c-1-40-1-40 2-43 11-10 12-56 10-255-2-152-5-169-27-167-1108 4-1097 4-1102 9l-8 7c-9 8-11 42-10 203 2 151 2 151 19 154 20 4 23-5 24-70l1-51c0-2 0-2 113-2h125c216-9 355-1 355 20a15144 15144 0 0 0 2 177 355789 355789 0 0 0-934 13 169111 169111 0 0 0-37-894c-2-35-9-30 49-31a68893 68893 0 0 1 718-23c12-1 12-1 12 7 20 318 21 332 23 336 5 9 4 8 58 5 33-2 33-2 38 1 4 2 5 2 11 2l66-5c80-4 73 0 70-47a21773 21773 0 0 1-18-292c-1-13-2-12 10-12l31-3a2891 2891 0 0 1 11 252l2 44c1 19 20 29 33 17 7-6 7-9 6-31a4580 4580 0 0 1-8-134 7494 7494 0 0 0-4-82 13237 13237 0 0 0-8-176 821 821 0 0 0 2-60 307 307 0 0 0 5-63c-1-8-6-11-18-11l-14-2c-6-1-25-2-33-1m56 622c-12 7-5 25 9 25 10 0 15-10 11-19-4-7-14-10-20-6M826 2086c-10 7-10 26 0 31 10 6 23-1 22-13 0-15-12-25-22-18m1546 47c-13 7-11 38 4 44 12 5 24-5 23-18 0-22-12-33-27-26M724 2275c-7 4-9 14-5 22l2 5c0 8 11 17 19 16 19-3 22-24 6-38l-9-5c-5-3-9-3-13 0"/></svg>